<svg id="visual" viewBox="0 0 900 600" width="900" height="600" xmlns="http://www.w3.org/2000/svg" xmlns:xlink="http://www.w3.org/1999/xlink" version="1.1"><rect x="0" y="0" width="900" height="600" fill="#001220"></rect><defs><linearGradient id="grad1_0" x1="33.3%" y1="0%" x2="100%" y2="100%"><stop offset="20%" stop-color="#fbae3c" stop-opacity="1"></stop><stop offset="80%" stop-color="#fbae3c" stop-opacity="1"></stop></linearGradient></defs><defs><linearGradient id="grad1_1" x1="33.3%" y1="0%" x2="100%" y2="100%"><stop offset="20%" stop-color="#fbae3c" stop-opacity="1"></stop><stop offset="80%" stop-color="#cc5867" stop-opacity="1"></stop></linearGradient></defs><defs><linearGradient id="grad1_2" x1="33.3%" y1="0%" x2="100%" y2="100%"><stop offset="20%" stop-color="#593762" stop-opacity="1"></stop><stop offset="80%" stop-color="#cc5867" stop-opacity="1"></stop></linearGradient></defs><defs><linearGradient id="grad1_3" x1="33.3%" y1="0%" x2="100%" y2="100%"><stop offset="20%" stop-color="#593762" stop-opacity="1"></stop><stop offset="80%" stop-color="#001220" stop-opacity="1"></stop></linearGradient></defs><defs><linearGradient id="grad2_0" x1="0%" y1="0%" x2="66.7%" y2="100%"><stop offset="20%" stop-color="#fbae3c" stop-opacity="1"></stop><stop offset="80%" stop-color="#fbae3c" stop-opacity="1"></stop></linearGradient></defs><defs><linearGradient id="grad2_1" x1="0%" y1="0%" x2="66.7%" y2="100%"><stop offset="20%" stop-color="#cc5867" stop-opacity="1"></stop><stop offset="80%" stop-color="#fbae3c" stop-opacity="1"></stop></linearGradient></defs><defs><linearGradient id="grad2_2" x1="0%" y1="0%" x2="66.7%" y2="100%"><stop offset="20%" stop-color="#cc5867" stop-opacity="1"></stop><stop offset="80%" stop-color="#593762" stop-opacity="1"></stop></linearGradient></defs><defs><linearGradient id="grad2_3" x1="0%" y1="0%" x2="66.7%" y2="100%"><stop offset="20%" stop-color="#001220" stop-opacity="1"></stop><stop offset="80%" stop-color="#593762" stop-opacity="1"></stop></linearGradient></defs><g transform="translate(900, 0)"><path d="M0 405.6C-38.9 394.1 -77.9 382.5 -121.1 372.8C-164.4 363.1 -211.9 355.2 -236.3 325.2C-260.7 295.2 -261.9 243.2 -287.2 208.7C-312.5 174.2 -362 157.2 -385.8 125.3C-409.5 93.5 -407.6 46.7 -405.6 0L0 0Z" fill="#232745"></path><path d="M0 304.2C-29.2 295.6 -58.4 286.9 -90.9 279.6C-123.3 272.3 -158.9 266.4 -177.2 243.9C-195.5 221.4 -196.4 182.4 -215.4 156.5C-234.4 130.6 -271.5 117.9 -289.3 94C-307.1 70.1 -305.7 35.1 -304.2 0L0 0Z" fill="#96446e"></path><path d="M0 202.8C-19.5 197 -38.9 191.3 -60.6 186.4C-82.2 181.5 -106 177.6 -118.1 162.6C-130.3 147.6 -130.9 121.6 -143.6 104.3C-156.3 87.1 -181 78.6 -192.9 62.7C-204.8 46.7 -203.8 23.4 -202.8 0L0 0Z" fill="#f17c53"></path><path d="M0 101.4C-9.7 98.5 -19.5 95.6 -30.3 93.2C-41.1 90.8 -53 88.8 -59.1 81.3C-65.2 73.8 -65.5 60.8 -71.8 52.2C-78.1 43.5 -90.5 39.3 -96.4 31.3C-102.4 23.4 -101.9 11.7 -101.4 0L0 0Z" fill="#fbae3c"></path></g><g transform="translate(0, 600)"><path d="M0 -405.6C36.6 -377.5 73.2 -349.3 106.9 -329.1C140.7 -308.8 171.6 -296.5 204 -280.7C236.4 -265 270.3 -245.9 303.4 -220.4C336.5 -195 368.9 -163.1 385.8 -125.3C402.7 -87.5 404.2 -43.8 405.6 0L0 0Z" fill="#232745"></path><path d="M0 -304.2C27.4 -283.1 54.9 -262 80.2 -246.8C105.5 -231.6 128.7 -222.3 153 -210.5C177.3 -198.7 202.7 -184.4 227.5 -165.3C252.4 -146.2 276.6 -122.4 289.3 -94C302 -65.7 303.1 -32.8 304.2 0L0 0Z" fill="#96446e"></path><path d="M0 -202.8C18.3 -188.7 36.6 -174.7 53.5 -164.5C70.3 -154.4 85.8 -148.2 102 -140.4C118.2 -132.5 135.1 -122.9 151.7 -110.2C168.3 -97.5 184.4 -81.6 192.9 -62.7C201.3 -43.8 202.1 -21.9 202.8 0L0 0Z" fill="#f17c53"></path><path d="M0 -101.4C9.1 -94.4 18.3 -87.3 26.7 -82.3C35.2 -77.2 42.9 -74.1 51 -70.2C59.1 -66.2 67.6 -61.5 75.8 -55.1C84.1 -48.7 92.2 -40.8 96.4 -31.3C100.7 -21.9 101 -10.9 101.4 0L0 0Z" fill="#fbae3c"></path></g></svg>